<?xml version="1.0"?>
<svg version="1.1" xmlns="http://www.w3.org/2000/svg" width="400px" height="40px" style=""><path fill="#c92c85" d="M50.953125,35.78125q0.0625-3.265625,0.2734375-6.515625t0.3671875-6.515625q0.03125-1.25,0.03125-2.2734375t0.1015625-1.7734375t0.375-1.1484375t0.9140625-0.3984375q0.546875,0,0.828125,0.15625t0.4296875,0.3984375t0.1796875,0.546875t0.03125,0.6171875q0,0.453125,0.03125,0.8984375t0.03125,0.8984375q0,3.296875-0.1796875,6.578125t-0.1796875,6.609375q0,0.484375,0.015625,0.9765625t0.015625,1.0078125q0,0.1875-0.171875,0.3125t-0.4296875,0.2109375t-0.546875,0.1171875t-0.4765625,0.03125q-0.21875,0-0.4921875-0.03125t-0.53125-0.1328125t-0.4375-0.2421875t-0.1796875-0.328125z M51.828125,14.59375q0-0.15625,0.046875-0.3515625t0.109375-0.3515625q0.03125-0.1875,0.09375-0.640625t0.2265625-0.8828125t0.453125-0.765625t0.8203125-0.3359375l0.296875,0q0.25,0.0625,0.5078125,0.15625t0.2578125,0.453125q0,0.15625-0.015625,0.296875t-0.046875,0.3125q-0.125,0.921875-0.2421875,1.453125t-0.2734375,0.8046875t-0.3984375,0.3515625t-0.6171875,0.109375q-0.125,0-0.3359375-0.015625t-0.40625-0.078125t-0.3359375-0.1953125t-0.140625-0.3203125z M57.85421875,30.25l0-0.453125q0-0.5625,0.03125-1.0625q0.03125-0.703125,0.03125-1.15625q0-0.25,0.03125-0.5703125t0.15625-0.5078125q0.15625-0.15625,0.3671875-0.3203125t0.4609375-0.1640625q0.796875,0,1.25,0.1796875t0.484375,0.7421875l0.0625,0.484375q0.28125-0.671875,0.75-1.6640625t1.0859375-1.890625t1.390625-1.53125t1.6328125-0.6328125q0.796875,0,1.3125,0.75t0.8203125,1.9140625t0.4296875,2.59375t0.171875,2.8046875t0.0625,2.5078125t0.109375,1.7109375q0.0625,0.484375,0.2109375,1.0234375t0.1484375,0.9921875q0,0.125-0.1796875,0.2421875t-0.3828125,0.1953125t-0.4140625,0.125t-0.3046875,0.046875q-0.609375,0-0.8671875-0.9140625t-0.3203125-2.2890625t-0.0625-2.9765625t-0.109375-2.9765625t-0.4453125-2.2890625t-1.0703125-0.9453125q-0.671875,0-1.390625,0.8671875t-1.234375,2.3046875q-0.5,1.4375-0.6875,3.265625q-0.0625,0.578125-0.0625,1.15625q0,1.265625,0.265625,2.53125q0.03125,0.21875-0.1796875,0.328125t-0.5234375,0.171875t-0.6328125,0.078125t-0.4921875,0.015625q-0.609375,0-0.9765625-0.4296875t-0.5703125-1.1015625t-0.2734375-1.5078125t-0.0859375-1.6484375z M72.0521875,26.140625q0-0.640625,0.375-1.1015625t0.9140625-0.75t1.1796875-0.4296875t1.1875-0.140625q0.421875,0,1.125,0.125t1.375,0.375t1.1640625,0.65625t0.4921875,0.953125q0,0.25-0.1875,0.4453125t-0.390625,0.1953125q-0.421875,0-0.765625-0.2734375t-0.7109375-0.578125t-0.8046875-0.578125t-0.984375-0.2734375t-0.9921875,0.3515625t-0.4453125,0.9296875q0,0.953125,0.671875,1.8671875t1.4765625,1.921875t1.4765625,2.1171875t0.671875,2.453125q0,0.578125-0.2421875,0.9765625t-0.640625,0.6484375t-0.8984375,0.3828125t-0.96875,0.1328125q-0.515625,0-1.203125-0.2421875t-1.296875-0.640625t-1.0234375-0.9296875t-0.4140625-1.109375q0-0.28125,0.3984375-0.359375t0.5859375-0.078125q0.09375,0,0.2890625,0.0625t0.3828125,0.140625t0.3359375,0.171875t0.1171875,0.203125q0.15625,0.1875,0.4765625,0.5546875t0.640625,0.59375t0.5625,0.1640625t0.2421875-0.703125q0-1.21875-0.65625-2.2421875t-1.4296875-2t-1.4296875-1.9375t-0.65625-2.0546875z M82.42203125,20.25q0-0.21875,0.46875-0.375t1.0625-0.2578125t1.1484375-0.1484375t0.7578125-0.078125q0-0.421875,0.03125-0.8515625t0.171875-0.765625t0.4453125-0.5390625t0.8515625-0.203125q0.453125,0,0.6875,0.109375t0.5,0.453125q0.0625,0.1875,0.0625,0.359375l0,0.5234375t-0.03125,0.5390625q0.578125-0.0625,1.1484375-0.1484375t1.1484375-0.0859375q0.421875,0,0.578125,0.015625t0.3125,0.375q0.125,0.359375-0.3046875,0.546875t-1.03125,0.28125t-1.1953125,0.140625t-0.71875,0.046875q-0.1875,2.6875-0.3828125,5.328125t-0.1953125,5.359375q0,1.21875,0.078125,2.515625t0.4375,2.453125q0.09375,0.359375,0.3125,0.671875t0.21875,0.671875q0,0.21875-0.171875,0.34375t-0.4140625,0.2109375t-0.484375,0.1015625t-0.3984375,0.015625q-0.984375,0-1.5-0.734375t-0.7421875-1.7578125t-0.2421875-2.1015625t-0.015625-1.75q0-1.375,0.0546875-2.8125t0.1328125-2.84375t0.21875-2.75t0.328125-2.5q-0.546875,0.0625-1.0703125,0.140625t-1.0703125,0.078125q-0.125,0-0.3359375-0.015625t-0.3984375-0.078125t-0.3203125-0.171875t-0.1328125-0.3125z M94.37,30.171875q0-1.0625,0.2890625-2.046875t0.8671875-1.7578125t1.4453125-1.234375t2.0078125-0.4609375q0.703125,0,1.5546875,0.2109375t1.6015625,0.625t1.25,1.0546875t0.5,1.46875q0,0.390625-0.1328125,0.59375t-0.5390625,0.203125l-0.171875-0.03125q0.453125,1.21875,0.78125,2.5t0.640625,2.5625q0.125,0.25,0.1875,0.4453125t0.0625,0.3828125q0,0.25-0.140625,0.4140625t-0.3671875,0.2421875t-0.46875,0.109375t-0.4296875,0.03125q-0.671875,0-1.0078125-0.234375t-0.484375-0.640625t-0.1796875-0.9140625t-0.125-1.0234375q-0.1875,0.609375-0.4921875,1.1875t-0.71875,1.0390625t-0.9765625,0.734375t-1.265625,0.2734375q-1.03125,0-1.734375-0.59375t-1.1328125-1.4609375t-0.625-1.8515625t-0.1953125-1.828125z M96.58875,29.953125q0,0.578125,0.078125,1.21875t0.2578125,1.265625t0.4609375,1.1796875t0.703125,0.9765625q0.765625-0.828125,1.1328125-2.015625t0.65625-2.2890625t0.65625-1.890625t1.1328125-0.7890625q0.484375,0,0.8125,0.171875q-0.15625-0.390625-0.515625-0.7578125t-0.8046875-0.671875t-0.921875-0.5t-0.8984375-0.1953125q-0.125,0-0.2890625,0.0390625t-0.2578125,0.0078125q-0.640625,0.1875-1.0546875,0.6484375t-0.671875,1.0859375t-0.3671875,1.28125t-0.109375,1.234375z M107.91171875,33.03125q0-0.546875,0.375-0.6953125t0.8125-0.1484375q0.765625,0,1.296875,0.6875t1.0078125,1.5078125t0.9453125,1.5078125t1.109375,0.6875q0.484375,0,0.8828125-0.2421875t0.6875-0.609375t0.4453125-0.828125t0.15625-0.9140625q0-1.1875-0.4765625-2.453125t-1.21875-2.609375t-1.5703125-2.75t-1.5625-2.859375t-1.21875-2.9609375t-0.484375-3.0390625q0-2.296875,1.375-3.5625t3.625-1.265625q0.765625,0,1.546875,0.21875t1.4375,0.65625t1.0703125,1.078125t0.4140625,1.5q0,0.28125-0.4140625,0.3671875t-0.6015625,0.0859375q-0.28125,0-0.609375-0.0703125t-0.421875-0.3828125t-0.265625-0.71875t-0.4296875-0.7578125t-0.609375-0.609375t-0.7734375-0.2578125q-0.703125,0-1.1953125,0.2890625t-0.796875,0.7734375t-0.453125,1.0859375t-0.1484375,1.2421875q0,1.5,0.515625,3.0234375t1.28125,3.03125t1.6640625,2.9765625t1.6640625,2.859375t1.28125,2.71875t0.515625,2.515625q0,1.0625-0.5,1.796875t-1.265625,1.1953125t-1.6953125,0.671875t-1.8203125,0.2109375q-0.953125,0-1.953125-0.3828125t-1.796875-1.0546875t-1.3125-1.5703125t-0.515625-1.9453125z M121.6565625,30.46875q0-0.890625,0.2265625-1.8359375t0.71875-1.703125t1.2421875-1.234375t1.8125-0.4765625q0.796875,0,1.6796875,0.2734375t1.6171875,0.78125t1.1953125,1.2421875t0.4609375,1.640625q0,1.09375-0.3984375,2.078125t-1.1171875,1.7578125t-1.6796875,1.21875t-2.0859375,0.4453125q-0.921875,0-1.609375-0.3359375t-1.1484375-0.8984375t-0.6875-1.328125t-0.2265625-1.625z M123.9534375,30.4375q0,0.28125,0.0859375,0.828125t0.2578125,1.0703125t0.4453125,0.90625t0.6640625,0.3515625q0.828125-0.09375,1.3671875-0.5390625t0.875-1.0859375t0.46875-1.390625t0.1328125-1.421875q0-0.859375-0.3359375-1.4375t-1.1015625-0.9375q0,0.03125,0.03125,0.03125t0.03125-0.03125l-0.390625-0.09375q-0.15625-0.0625-0.3828125-0.140625t-0.4453125-0.34375q-0.609375,0.21875-0.9453125,0.5625t-0.5078125,0.8359375t-0.2109375,1.1796875t-0.0390625,1.65625z M133.49515625,29.859375q0-1.125,0.2890625-2.2578125t0.8984375-2.03125t1.5546875-1.4609375t2.2265625-0.5625q0.546875,0,1.203125,0.1328125t1.2109375,0.421875t0.9375,0.75t0.3828125,1.1328125q0,0.421875-0.21875,0.5625t-0.578125,0.140625l-0.109375-0.15625t-0.3046875-0.3984375t-0.4140625-0.515625t-0.421875-0.4609375q-0.640625-0.640625-1.203125-0.6875l-0.125,0q-0.46875,0-0.875,0.28125q-0.453125,0.34375-0.8046875,0.96875t-0.5859375,1.328125t-0.3671875,1.421875t-0.1328125,1.1875q0,0.640625,0.1484375,1.4609375t0.5,1.5546875t0.890625,1.234375t1.3828125,0.5q0.765625,0,1.390625-0.375t1.1953125-0.8359375t1.1171875-0.828125t1.125-0.3671875q0.25,0,0.5078125,0.0625t0.2578125,0.328125l0,0.09375q-0.28125,0.734375-0.953125,1.296875t-1.5078125,0.9765625t-1.734375,0.6171875t-1.6015625,0.203125q-1.3125,0-2.3046875-0.4296875t-1.6484375-1.1796875t-0.9921875-1.8046875t-0.3359375-2.3046875z M147.130625,29.796875q0-1.4375,0.3359375-2.8203125t0.5703125-2.7578125q0.0625-0.359375,0.4921875-0.4453125t0.7265625-0.0859375q0.515625,0,0.828125,0.15625q0.125,0.0625,0.234375,0.140625t0.109375,0.203125q0,1.34375-0.3203125,2.625t-0.3203125,2.71875q0,0.484375,0.0703125,0.9140625t0.1328125,0.8515625l0.09375,0.453125q0,0.125,0.015625,0.21875t0.046875,0.21875q0,0.28125-0.3984375,0.3828125t-0.6953125,0.1015625q-0.453125,0-0.8359375-0.1796875t-0.6015625-0.6171875l-0.21875-0.453125q-0.1875-0.359375-0.1875-0.8046875t-0.078125-0.8203125z M148.130625,20.390625l0-0.296875q0-0.734375,0.3671875-1.3125t1.1015625-0.578125q0.09375,0,0.1796875,0.015625t0.1796875,0.015625q0.1875,0.03125,0.4921875,0.1484375t0.3046875,0.3671875l0,0.03125q-0.0625,0.125-0.078125,0.2578125t-0.078125,0.2265625l0.03125-0.03125q-0.1875,0.484375-0.3046875,0.78125t-0.2578125,0.4765625t-0.3515625,0.2578125t-0.6015625,0.078125q-0.0625,0-0.21875-0.015625t-0.3359375-0.0625t-0.3046875-0.125t-0.125-0.234375z M153.98484375,33.375q0.09375-2.53125,0.1640625-5.1875t0.1328125-5.2421875t0.09375-5.0234375t0.03125-4.546875q0.03125-0.421875,0.734375-0.671875t1.6796875-0.3671875t2.0625-0.1484375t1.9296875-0.03125q0.1875,0,0.78125-0.015625l0.296875,0q0.453125,0,0.953125,0.03125q0.65625,0.046875,1.1484375,0.203125t0.4921875,0.453125q0,0.21875-0.171875,0.3515625t-0.3984375,0.1953125t-0.46875,0.078125t-0.3359375,0.015625q-1.46875,0-2.90625-0.046875q-0.390625-0.015625-0.796875-0.015625q-1.0625,0-2.15625,0.09375q0.0625,0.1875,0.1015625,1.1328125t0.0390625,2.1328125t-0.015625,2.3203125t0,1.7421875l0,4.0625q0.484375-0.03125,0.953125-0.03125l0.9375,0l0.625-0.03125q0.3125-0.015625,0.65625-0.015625q0.359375,0,0.734375,0.015625q0.75,0.03125,1.3671875,0.1796875t0.6171875,0.5234375q0,0.28125-0.234375,0.4140625t-0.5234375,0.1953125t-0.546875,0.0625l-0.2890625,0q-0.890625,0-1.8515625-0.0625t-1.7890625-0.0625q-0.15625,0.0625-0.3359375,0.046875t-0.3203125-0.015625q0,2.34375-0.046875,4.6640625t-0.109375,4.6171875q0,0.453125-0.5703125,0.59375t-1.0859375,0.140625q-0.578125,0-0.9140625-0.140625t-0.4765625-0.4609375t-0.171875-0.8515625q-0.015625-0.296875-0.03125-0.65625q0-0.296875,0.015625-0.640625z M166.7609375,20.984375q0-0.609375,0.0390625-1.7890625t0.1171875-2.4609375t0.203125-2.3984375t0.359375-1.6015625q0.125-0.25,0.3828125-0.3359375t0.5078125-0.0859375q0.15625,0,0.5234375,0.0859375t0.3671875,0.3359375q0,0.390625-0.09375,1.4765625t-0.171875,2.4921875t-0.109375,2.921875l0,0.671875q0,1.140625,0.078125,2.140625q0.109375,1.28125,0.4140625,2.109375t0.9140625,0.828125q0.828125,0,1.546875-0.4921875t1.3125-1.28125t1.0703125-1.765625t0.8125-1.921875t0.5625-1.7421875t0.3203125-1.25q0.09375-0.515625,0.1640625-1.375t0.2265625-1.6875t0.5546875-1.4375t1.1640625-0.609375q0.453125,0,0.8671875,0.15625t0.5390625,0.671875q-0.25,0.953125-0.421875,2.6484375t-0.2734375,3.5546875t-0.1484375,3.6015625t-0.046875,2.8359375q0,1.21875,0.03125,2.9765625t0.109375,3.6328125t0.1796875,3.6484375t0.2265625,2.9609375q0.125,0.25,0.125,0.578125q0,0.390625-0.15625,0.609375t-0.4296875,0.328125t-0.59375,0.140625t-0.6171875,0.03125q-0.453125,0-1.0078125-0.15625t-0.6796875-0.640625q-0.15625-0.578125-0.2578125-1.5234375t-0.1484375-2.0625t-0.078125-2.3359375t-0.03125-2.3359375t0.015625-2.078125t0.015625-1.5703125q0-1.1875,0.046875-2.3359375t0.109375-2.3359375q-0.390625,0.796875-0.9140625,1.6171875t-1.1953125,1.4921875t-1.5,1.1015625t-1.796875,0.4296875q-1.25,0-1.90625-0.671875t-0.953125-1.6640625t-0.3359375-2.109375t-0.0390625-2.0234375z"/><path fill="#000000" d=""/></svg>
